<svg width="330" height="54" viewBox="0 0 330 54" fill="none" xmlns="http://www.w3.org/2000/svg">
<path d="M21.457 22.8919C21.457 24.3535 21.1215 25.6954 20.4506 26.9174C19.7797 28.1154 18.7494 29.0858 17.3597 29.8286C15.9699 30.5714 14.2447 30.9428 12.1841 30.9428H8.37433V40H2.22836V14.7692H12.1841C14.1968 14.7692 15.898 15.1166 17.2878 15.8115C18.6775 16.5064 19.7198 17.4648 20.4147 18.6868C21.1095 19.9088 21.457 21.3105 21.457 22.8919ZM11.7169 26.0548C12.891 26.0548 13.7655 25.7792 14.3406 25.2281C14.9156 24.677 15.2032 23.8983 15.2032 22.8919C15.2032 21.8856 14.9156 21.1068 14.3406 20.5557C13.7655 20.0046 12.891 19.7291 11.7169 19.7291H8.37433V26.0548H11.7169ZM33.7857 40.2875C31.8209 40.2875 30.0478 39.8682 28.4664 39.0296C26.9089 38.191 25.6749 36.9929 24.7644 35.4355C23.8779 33.878 23.4346 32.057 23.4346 29.9724C23.4346 27.9117 23.8898 26.1027 24.8004 24.5452C25.7109 22.9638 26.9568 21.7538 28.5383 20.9152C30.1197 20.0765 31.8928 19.6572 33.8576 19.6572C35.8224 19.6572 37.5955 20.0765 39.1769 20.9152C40.7583 21.7538 42.0043 22.9638 42.9148 24.5452C43.8253 26.1027 44.2806 27.9117 44.2806 29.9724C44.2806 32.033 43.8133 33.854 42.8788 35.4355C41.9683 36.9929 40.7104 38.191 39.105 39.0296C37.5236 39.8682 35.7505 40.2875 33.7857 40.2875ZM33.7857 34.9682C34.9598 34.9682 35.9541 34.5369 36.7688 33.6743C37.6074 32.8117 38.0268 31.5777 38.0268 29.9724C38.0268 28.367 37.6194 27.133 36.8048 26.2704C36.014 25.4078 35.0317 24.9765 33.8576 24.9765C32.6595 24.9765 31.6651 25.4078 30.8744 26.2704C30.0837 27.109 29.6884 28.343 29.6884 29.9724C29.6884 31.5777 30.0717 32.8117 30.8385 33.6743C31.6292 34.5369 32.6116 34.9682 33.7857 34.9682ZM53.6871 23.2873C54.4059 22.1851 55.3044 21.3225 56.3827 20.6995C57.4609 20.0526 58.659 19.7291 59.9768 19.7291V26.2345H58.2876C56.7541 26.2345 55.6039 26.5699 54.8372 27.2408C54.0704 27.8878 53.6871 29.0379 53.6871 30.6912V40H47.5411V19.9447H53.6871V23.2873ZM74.0922 34.7885V40H70.9653C68.7369 40 66.9998 39.4609 65.7538 38.3826C64.5078 37.2804 63.8849 35.4954 63.8849 33.0274V25.0484H61.4408V19.9447H63.8849V15.0567H70.0308V19.9447H74.0563V25.0484H70.0308V33.0993C70.0308 33.6983 70.1746 34.1296 70.4621 34.3932C70.7497 34.6567 71.2289 34.7885 71.8998 34.7885H74.0922ZM76.2936 29.9364C76.2936 27.8758 76.677 26.0667 77.4437 24.5093C78.2344 22.9518 79.3007 21.7538 80.6425 20.9152C81.9843 20.0765 83.4819 19.6572 85.1352 19.6572C86.5489 19.6572 87.7828 19.9447 88.8371 20.5198C89.9154 21.0949 90.742 21.8496 91.3171 22.7841V19.9447H97.463V40H91.3171V37.1606C90.7181 38.0951 89.8794 38.8499 88.8012 39.4249C87.7469 40 86.5129 40.2875 85.0992 40.2875C83.4699 40.2875 81.9843 39.8682 80.6425 39.0296C79.3007 38.167 78.2344 36.957 77.4437 35.3995C76.677 33.8181 76.2936 31.9971 76.2936 29.9364ZM91.3171 29.9724C91.3171 28.4389 90.8858 27.2288 90.0232 26.3423C89.1846 25.4557 88.1542 25.0125 86.9322 25.0125C85.7102 25.0125 84.6679 25.4557 83.8053 26.3423C82.9667 27.2049 82.5474 28.4029 82.5474 29.9364C82.5474 31.4699 82.9667 32.6919 83.8053 33.6024C84.6679 34.489 85.7102 34.9323 86.9322 34.9323C88.1542 34.9323 89.1846 34.489 90.0232 33.6024C90.8858 32.7159 91.3171 31.5059 91.3171 29.9724ZM108.055 13.4034V40H101.909V13.4034H108.055Z" fill="white"/>
<path d="M202.8 40H196.654L186.374 24.4374V40H180.228V14.7692H186.374L196.654 30.4037V14.7692H202.8V40ZM216.384 40.2875C214.419 40.2875 212.646 39.8682 211.064 39.0296C209.507 38.191 208.273 36.9929 207.362 35.4355C206.476 33.878 206.033 32.057 206.033 29.9724C206.033 27.9117 206.488 26.1027 207.398 24.5452C208.309 22.9638 209.555 21.7538 211.136 20.9152C212.718 20.0765 214.491 19.6572 216.456 19.6572C218.42 19.6572 220.193 20.0765 221.775 20.9152C223.356 21.7538 224.602 22.9638 225.513 24.5452C226.423 26.1027 226.879 27.9117 226.879 29.9724C226.879 32.033 226.411 33.854 225.477 35.4355C224.566 36.9929 223.308 38.191 221.703 39.0296C220.122 39.8682 218.348 40.2875 216.384 40.2875ZM216.384 34.9682C217.558 34.9682 218.552 34.5369 219.367 33.6743C220.205 32.8117 220.625 31.5777 220.625 29.9724C220.625 28.367 220.217 27.133 219.403 26.2704C218.612 25.4078 217.63 24.9765 216.456 24.9765C215.257 24.9765 214.263 25.4078 213.472 26.2704C212.682 27.109 212.286 28.343 212.286 29.9724C212.286 31.5777 212.67 32.8117 213.436 33.6743C214.227 34.5369 215.21 34.9682 216.384 34.9682ZM241.317 34.7885V40H238.19C235.962 40 234.224 39.4609 232.978 38.3826C231.732 37.2804 231.109 35.4954 231.109 33.0274V25.0484H228.665V19.9447H231.109V15.0567H237.255V19.9447H241.281V25.0484H237.255V33.0993C237.255 33.6983 237.399 34.1296 237.687 34.3932C237.974 34.6567 238.453 34.7885 239.124 34.7885H241.317ZM247.831 17.8601C246.753 17.8601 245.866 17.5487 245.172 16.9257C244.501 16.2787 244.165 15.488 244.165 14.5535C244.165 13.5951 244.501 12.8044 245.172 12.1814C245.866 11.5345 246.753 11.211 247.831 11.211C248.885 11.211 249.748 11.5345 250.419 12.1814C251.114 12.8044 251.461 13.5951 251.461 14.5535C251.461 15.488 251.114 16.2787 250.419 16.9257C249.748 17.5487 248.885 17.8601 247.831 17.8601ZM250.886 19.9447V40H244.74V19.9447H250.886ZM254.118 29.9724C254.118 27.8878 254.537 26.0667 255.376 24.5093C256.239 22.9518 257.425 21.7538 258.934 20.9152C260.468 20.0765 262.217 19.6572 264.182 19.6572C266.698 19.6572 268.794 20.3161 270.471 21.634C272.173 22.9518 273.287 24.8088 273.814 27.2049H267.273C266.722 25.6714 265.655 24.9046 264.074 24.9046C262.948 24.9046 262.049 25.3479 261.378 26.2345C260.707 27.0971 260.372 28.343 260.372 29.9724C260.372 31.6017 260.707 32.8597 261.378 33.7462C262.049 34.6088 262.948 35.0401 264.074 35.0401C265.655 35.0401 266.722 34.2733 267.273 32.7399H273.814C273.287 35.088 272.173 36.933 270.471 38.2748C268.77 39.6166 266.674 40.2875 264.182 40.2875C262.217 40.2875 260.468 39.8682 258.934 39.0296C257.425 38.191 256.239 36.9929 255.376 35.4355C254.537 33.878 254.118 32.057 254.118 29.9724ZM280.192 17.8601C279.114 17.8601 278.228 17.5487 277.533 16.9257C276.862 16.2787 276.526 15.488 276.526 14.5535C276.526 13.5951 276.862 12.8044 277.533 12.1814C278.228 11.5345 279.114 11.211 280.192 11.211C281.247 11.211 282.109 11.5345 282.78 12.1814C283.475 12.8044 283.822 13.5951 283.822 14.5535C283.822 15.488 283.475 16.2787 282.78 16.9257C282.109 17.5487 281.247 17.8601 280.192 17.8601ZM283.247 19.9447V40H277.101V19.9447H283.247ZM286.479 29.9364C286.479 27.8758 286.863 26.0667 287.629 24.5093C288.42 22.9518 289.486 21.7538 290.828 20.9152C292.17 20.0765 293.668 19.6572 295.321 19.6572C296.735 19.6572 297.969 19.9447 299.023 20.5198C300.101 21.0949 300.928 21.8496 301.503 22.7841V19.9447H307.649V40H301.503V37.1606C300.904 38.0951 300.065 38.8499 298.987 39.4249C297.933 40 296.699 40.2875 295.285 40.2875C293.656 40.2875 292.17 39.8682 290.828 39.0296C289.486 38.167 288.42 36.957 287.629 35.3995C286.863 33.8181 286.479 31.9971 286.479 29.9364ZM301.503 29.9724C301.503 28.4389 301.072 27.2288 300.209 26.3423C299.37 25.4557 298.34 25.0125 297.118 25.0125C295.896 25.0125 294.854 25.4557 293.991 26.3423C293.152 27.2049 292.733 28.4029 292.733 29.9364C292.733 31.4699 293.152 32.6919 293.991 33.6024C294.854 34.489 295.896 34.9323 297.118 34.9323C298.34 34.9323 299.37 34.489 300.209 33.6024C301.072 32.7159 301.503 31.5059 301.503 29.9724ZM320.254 40.2875C318.505 40.2875 316.947 39.988 315.581 39.389C314.216 38.79 313.137 37.9753 312.347 36.945C311.556 35.8907 311.113 34.7166 311.017 33.4227H317.091C317.163 34.1176 317.486 34.6807 318.061 35.112C318.636 35.5433 319.343 35.7589 320.182 35.7589C320.949 35.7589 321.536 35.6152 321.943 35.3276C322.374 35.0161 322.59 34.6208 322.59 34.1416C322.59 33.5665 322.29 33.1472 321.691 32.8836C321.092 32.5961 320.122 32.2846 318.78 31.9491C317.343 31.6137 316.144 31.2663 315.186 30.9068C314.228 30.5235 313.401 29.9364 312.706 29.1457C312.011 28.331 311.664 27.2408 311.664 25.8751C311.664 24.7249 311.975 23.6826 312.598 22.7482C313.245 21.7897 314.18 21.035 315.402 20.4839C316.648 19.9328 318.121 19.6572 319.822 19.6572C322.338 19.6572 324.315 20.2802 325.753 21.5262C327.214 22.7721 328.053 24.4254 328.269 26.4861H322.59C322.494 25.7912 322.183 25.2401 321.655 24.8328C321.152 24.4254 320.481 24.2218 319.643 24.2218C318.924 24.2218 318.373 24.3655 317.989 24.6531C317.606 24.9166 317.414 25.288 317.414 25.7672C317.414 26.3423 317.714 26.7736 318.313 27.0611C318.936 27.3487 319.894 27.6362 321.188 27.9237C322.674 28.3071 323.884 28.6905 324.818 29.0738C325.753 29.4333 326.567 30.0323 327.262 30.8709C327.981 31.6856 328.353 32.7878 328.377 34.1775C328.377 35.3516 328.041 36.4059 327.37 37.3403C326.723 38.2509 325.777 38.9697 324.531 39.4968C323.309 40.024 321.883 40.2875 320.254 40.2875Z" fill="#F50000"/>
<path d="M168.994 27.9259C168.79 27.132 167.981 26.654 167.187 26.8582C166.393 27.0624 165.915 27.8714 166.119 28.6653L168.994 27.9259ZM166.119 28.6653C165.953 28.0193 166.43 27.7486 166.169 27.9741C165.996 28.1233 165.615 28.3656 164.933 28.6567C163.594 29.2286 161.421 29.8533 158.358 30.3728L158.855 33.2993C162.042 32.7586 164.465 32.0842 166.099 31.3865C166.904 31.0427 167.604 30.6575 168.11 30.2202C168.527 29.8592 169.281 29.043 168.994 27.9259L166.119 28.6653Z" fill="#BF1515"/>
<path d="M121.719 26.093C124.433 23.6754 126.247 23.6376 129.399 23.199" stroke="#BF1515" stroke-width="2.96829"/>
<circle cx="144.903" cy="26.5129" r="17.405" transform="rotate(41.9444 144.903 26.5129)" fill="#BCCDE0"/>
<path d="M121.774 26.0845C112.968 35.0009 167.631 17.3698 167.566 28.417" stroke="#BF1515" stroke-width="2.96829" stroke-linecap="round"/>
</svg>
